:FULLY-SPECIFIED
:FORCE-ALL-JOINTS-BE-3DOF
:DEGREES
49
root 8.46777 15.7914 -29.7321 7.09862 -8.65619 -4.94882
lfemur -38.9453 7.93544 -15.4043
ltibia 34.3299 0 0
lfoot -1.9065 7.44604 0
ltoes -3.33109 0 0
rfemur 15.8259 5.22166 25.9443
rtibia 10.4782 0 0
rfoot -5.00017 -1.35732 0
rtoes -25.6132 0 0
lowerback -8.05435 0.817987 1.46436
upperback -1.26478 0.774972 3.79028
thorax 3.20581 0.389098 3.21482
lowerneck -21.3843 -4.56681 -12.3514
upperneck 16.5071 -5.50945 14.2348
head 9.51466 -1.83544 6.27852
lclavicle -2.94641e-14 -4.0009e-14 0
lhumerus -41.2377 -8.02863 91.0211
lradius 23.7974 0 0
lwrist 0.147629 0 0
lhand 3.84366 -18.3661 0
lfingers 7.12502 0 0
lthumb 29.2523 9.20892 0
rclavicle -2.94641e-14 -4.0009e-14 0
rhumerus -45.4762 18.798 -93.0376
rradius 53.3572 0 0
rwrist -25.944 0 0
rhand -30.8217 -32.6071 0
rfingers 7.12502 0 0
rthumb -4.11097 -62.5471 0
50
root 8.49294 15.8088 -29.6023 7.01047 -8.62104 -4.72963
lfemur -38.2523 7.78129 -15.7547
ltibia 34.1249 0 0
lfoot -2.30383 7.50001 0
ltoes -3.26079 0 0
rfemur 14.6644 5.10176 25.7158
rtibia 11.9751 0 0
rfoot -5.35528 -1.68778 0
rtoes -25.1793 0 0
lowerback -7.96534 0.758311 1.3063
upperback -1.27178 0.709125 3.75422
thorax 3.15371 0.355917 3.26022
lowerneck -21.4129 -4.54959 -12.3315
upperneck 16.6024 -5.48172 14.1675
head 9.54638 -1.82756 6.25786
lclavicle -2.91873e-14 -3.87387e-14 0
lhumerus -40.8132 -8.17526 90.907
lradius 23.888 0 0
lwrist 0.200314 0 0
lhand 3.43432 -18.5018 0
lfingers 7.12502 0 0
lthumb 28.8599 9.12582 0
rclavicle -2.91873e-14 -3.87387e-14 0
rhumerus -45.4285 18.65 -92.9189
rradius 52.9649 0 0
rwrist -25.82 0 0
rhand -30.8178 -32.3305 0
rfingers 7.12502 0 0
rthumb -4.10723 -62.2706 0
51
root 8.51811 15.8263 -29.4726 6.92232 -8.58588 -4.51043
lfemur -37.5592 7.62714 -16.105
ltibia 33.9198 0 0
lfoot -2.70115 7.55398 0
ltoes -3.19049 0 0
rfemur 13.503 4.98186 25.4874
rtibia 13.472 0 0
rfoot -5.71039 -2.01825 0
rtoes -24.7454 0 0
lowerback -7.87634 0.698635 1.14825
upperback -1.27879 0.643279 3.71815
thorax 3.1016 0.322737 3.30563
lowerneck -21.4415 -4.53237 -12.3116
upperneck 16.6976 -5.45399 14.1002
head 9.5781 -1.81967 6.2372
lclavicle -2.89105e-14 -3.74685e-14 0
lhumerus -40.3886 -8.32189 90.7928
lradius 23.9786 0 0
lwrist 0.252998 0 0
lhand 3.02498 -18.6376 0
lfingers 7.12502 0 0
lthumb 28.4676 9.04273 0
rclavicle -2.89105e-14 -3.74685e-14 0
rhumerus -45.3807 18.5021 -92.8003
rradius 52.5727 0 0
rwrist -25.6961 0 0
rhand -30.8139 -32.0539 0
rfingers 7.12502 0 0
rthumb -4.10349 -61.994 0
52
root 8.54328 15.8437 -29.3429 6.83417 -8.55072 -4.29124
lfemur -36.8662 7.47299 -16.4554
ltibia 33.7148 0 0
lfoot -3.09847 7.60795 0
ltoes -3.1202 0 0
rfemur 12.3415 4.86197 25.2589
rtibia 14.9689 0 0
rfoot -6.06551 -2.34871 0
rtoes -24.3115 0 0
lowerback -7.78734 0.638959 0.990189
upperback -1.28579 0.577432 3.68208
thorax 3.0495 0.289556 3.35103
lowerneck -21.47 -4.51515 -12.2918
upperneck 16.7929 -5.42626 14.0329
head 9.60982 -1.81178 6.21655
lclavicle -2.86337e-14 -3.61982e-14 0
lhumerus -39.964 -8.46852 90.6787
lradius 24.0692 0 0
lwrist 0.305682 0 0
lhand 2.61564 -18.7734 0
lfingers 7.12502 0 0
lthumb 28.0752 8.95963 0
rclavicle -2.86337e-14 -3.61982e-14 0
rhumerus -45.333 18.3541 -92.6817
rradius 52.1804 0 0
rwrist -25.5721 0 0
rhand -30.8101 -31.7773 0
rfingers 7.12502 0 0
rthumb -4.09975 -61.7175 0
53
root 8.56845 15.8612 -29.2131 6.74601 -8.51556 -4.07205
lfemur -36.1731 7.31884 -16.8057
ltibia 33.5097 0 0
lfoot -3.4958 7.66192 0
ltoes -3.0499 0 0
rfemur 11.18 4.74207 25.0305
rtibia 16.4658 0 0
rfoot -6.42062 -2.67917 0
rtoes -23.8776 0 0
lowerback -7.69834 0.579283 0.832132
upperback -1.2928 0.511585 3.64602
thorax 2.99739 0.256376 3.39644
lowerneck -21.4986 -4.49793 -12.2719
upperneck 16.8881 -5.39853 13.9656
head 9.64154 -1.80389 6.19589
lclavicle -2.83568e-14 -3.49279e-14 0
lhumerus -39.5394 -8.61514 90.5646
lradius 24.1599 0 0
lwrist 0.358367 0 0
lhand 2.2063 -18.9092 0
lfingers 7.12502 0 0
lthumb 27.6829 8.87654 0
rclavicle -2.83568e-14 -3.49279e-14 0
rhumerus -45.2852 18.2061 -92.5631
rradius 51.7881 0 0
rwrist -25.4482 0 0
rhand -30.8062 -31.5007 0
rfingers 7.12502 0 0
rthumb -4.096 -61.441 0
54
root 8.59362 15.8786 -29.0834 6.65786 -8.48041 -3.85285
lfemur -35.4801 7.16469 -17.1561
ltibia 33.3047 0 0
lfoot -3.89312 7.71589 0
ltoes -2.97961 0 0
rfemur 10.0186 4.62217 24.802
rtibia 17.9627 0 0
rfoot -6.77573 -3.00964 0
rtoes -23.4437 0 0
lowerback -7.60933 0.519607 0.674075
upperback -1.2998 0.445738 3.60995
thorax 2.94529 0.223195 3.44184
lowerneck -21.5272 -4.48071 -12.252
upperneck 16.9834 -5.3708 13.8983
head 9.67326 -1.796 6.17523
lclavicle -2.808e-14 -3.36576e-14 0
lhumerus -39.1148 -8.76177 90.4504
lradius 24.2505 0 0
lwrist 0.411051 0 0
lhand 1.79696 -19.045 0
lfingers 7.12502 0 0
lthumb 27.2905 8.79344 0
rclavicle -2.808e-14 -3.36576e-14 0
rhumerus -45.2375 18.0581 -92.4445
rradius 51.3958 0 0
rwrist -25.3242 0 0
rhand -30.8023 -31.2241 0
rfingers 7.12502 0 0
rthumb -4.09226 -61.1645 0
55
root 8.6188 15.8961 -28.9537 6.56971 -8.44525 -3.63366
lfemur -34.7871 7.01054 -17.5064
ltibia 33.0996 0 0
lfoot -4.29044 7.76986 0
ltoes -2.90931 0 0
rfemur 8.85708 4.50227 24.5735
rtibia 19.4596 0 0
rfoot -7.13084 -3.3401 0
rtoes -23.0098 0 0
lowerback -7.52033 0.459931 0.516018
upperback -1.30681 0.379891 3.57388
thorax 2.89319 0.190014 3.48724
lowerneck -21.5557 -4.46349 -12.2321
upperneck 17.0786 -5.34307 13.831
head 9.70497 -1.78812 6.15458
lclavicle -2.78032e-14 -3.23873e-14 0
lhumerus -38.6903 -8.9084 90.3363
lradius 24.3411 0 0
lwrist 0.463736 0 0
lhand 1.38762 -19.1807 0
lfingers 7.12502 0 0
lthumb 26.8982 8.71035 0
rclavicle -2.78032e-14 -3.23873e-14 0
rhumerus -45.1897 17.9101 -92.3258
rradius 51.0035 0 0
rwrist -25.2002 0 0
rhand -30.7984 -30.9475 0
rfingers 7.12502 0 0
rthumb -4.08852 -60.888 0
56
root 8.64397 15.9135 -28.8239 6.48156 -8.41009 -3.41447
lfemur -34.094 6.85639 -17.8567
ltibia 32.8945 0 0
lfoot -4.68777 7.82383 0
ltoes -2.83901 0 0
rfemur 7.69561 4.38238 24.3451
rtibia 20.9565 0 0
rfoot -7.48596 -3.67057 0
rtoes -22.5759 0 0
lowerback -7.43133 0.400255 0.357961
upperback -1.31382 0.314044 3.53782
thorax 2.84108 0.156834 3.53265
lowerneck -21.5843 -4.44627 -12.2123
upperneck 17.1738 -5.31534 13.7637
head 9.73669 -1.78023 6.13392
lclavicle -2.75264e-14 -3.11171e-14 0
lhumerus -38.2657 -9.05503 90.2222
lradius 24.4317 0 0
lwrist 0.51642 0 0
lhand 0.97828 -19.3165 0
lfingers 7.12502 0 0
lthumb 26.5059 8.62726 0
rclavicle -2.75264e-14 -3.11171e-14 0
rhumerus -45.1419 17.7621 -92.2072
rradius 50.6112 0 0
rwrist -25.0763 0 0
rhand -30.7946 -30.6709 0
rfingers 7.12502 0 0
rthumb -4.08478 -60.6115 0
57
root 8.66914 15.931 -28.6942 6.39341 -8.37494 -3.19528
lfemur -33.401 6.70224 -18.2071
ltibia 32.6895 0 0
lfoot -5.08509 7.8778 0
ltoes -2.76872 0 0
rfemur 6.53414 4.26248 24.1166
rtibia 22.4534 0 0
rfoot -7.84107 -4.00103 0
rtoes -22.142 0 0
lowerback -7.34232 0.340579 0.199904
upperback -1.32082 0.248198 3.50175
thorax 2.78898 0.123653 3.57805
lowerneck -21.6129 -4.42905 -12.1924
upperneck 17.2691 -5.28761 13.6964
head 9.76841 -1.77234 6.11326
lclavicle -2.72496e-14 -2.98468e-14 0
lhumerus -37.8411 -9.20166 90.108
lradius 24.5223 0 0
lwrist 0.569105 0 0
lhand 0.56894 -19.4523 0
lfingers 7.12502 0 0
lthumb 26.1135 8.54416 0
rclavicle -2.72496e-14 -2.98468e-14 0
rhumerus -45.0942 17.6142 -92.0886
rradius 50.219 0 0
rwrist -24.9523 0 0
rhand -30.7907 -30.3943 0
rfingers 7.12502 0 0
rthumb -4.08104 -60.3349 0
58
root 8.69431 15.9484 -28.5645 6.30526 -8.33978 -2.97608
lfemur -32.7079 6.54809 -18.5574
ltibia 32.4844 0 0
lfoot -5.48241 7.93177 0
ltoes -2.69842 0 0
rfemur 5.37267 4.14258 23.8882
rtibia 23.9503 0 0
rfoot -8.19618 -4.3315 0
rtoes -21.7081 0 0
lowerback -7.25332 0.280902 0.0418468
upperback -1.32783 0.182351 3.46568
thorax 2.73687 0.0904726 3.62346
lowerneck -21.6414 -4.41183 -12.1725
upperneck 17.3643 -5.25988 13.629
head 9.80013 -1.76445 6.09261
lclavicle -2.69728e-14 -2.85765e-14 0
lhumerus -37.4165 -9.34829 89.9939
lradius 24.6129 0 0
lwrist 0.621789 0 0
lhand 0.1596 -19.5881 0
lfingers 7.12502 0 0
lthumb 25.7212 8.46107 0
rclavicle -2.69728e-14 -2.85765e-14 0
rhumerus -45.0464 17.4662 -91.97
rradius 49.8267 0 0
rwrist -24.8284 0 0
rhand -30.7868 -30.1178 0
rfingers 7.12502 0 0
rthumb -4.0773 -60.0584 0
